<?xml version="1.0" standalone="no"?><!DOCTYPE svg PUBLIC "-//W3C//DTD SVG 1.1//EN" "http://www.w3.org/Graphics/SVG/1.1/DTD/svg11.dtd"><svg t="1503047206619" class="icon" style="" viewBox="0 0 1024 1024" version="1.1" xmlns="http://www.w3.org/2000/svg" p-id="659" xmlns:xlink="http://www.w3.org/1999/xlink" width="48" height="48"><defs><style type="text/css"></style></defs><path d="M526.506667 352.085333c-134.826667 0-244.736 109.738667-244.736 244.736 0 39.594667 9.557333 78.165333 27.648 112.981334 16.384-16.384 55.466667-50.005333 110.592-58.368 67.072-10.24 103.765333-5.461333 130.56-2.048l2.218666 0.341333c25.088 3.242667 93.013333 2.56 130.901334-20.650667 38.229333-23.381333 72.362667-66.218667 82.261333-81.578666-22.698667-111.445333-121.514667-195.413333-239.445333-195.413334z" fill="#507d3b" p-id="660"></path><path d="M701.610667 657.92c-49.664 30.549333-129.194667 28.501333-153.088 25.429333l-2.218667-0.341333c-26.112-3.413333-58.709333-7.68-121.002667 1.877333-55.808 8.533333-92.672 49.322667-97.28 54.784 46.08 63.829333 119.125333 101.546667 198.485334 101.546667 134.826667 0 244.736-109.738667 244.736-244.565333v-0.341334c-17.408 20.138667-41.984 44.714667-69.632 61.610667z" fill="#507d3b" p-id="661"></path><path d="M858.624 22.186667H196.096c-67.584 0-122.88 55.296-122.88 122.88v697.173333c0 66.56 53.589333 121.173333 119.637333 122.88v17.749333c0 10.24 8.362667 18.773333 18.773334 18.773334h133.461333c10.24 0 18.773333-8.533333 18.773333-18.773334v-17.578666h328.704v17.578666c0 10.24 8.362667 18.773333 18.773334 18.773334H844.8c10.24 0 18.773333-8.533333 18.773333-18.773334v-17.749333c65.194667-2.730667 117.76-56.832 117.76-122.709333V145.066667c0.170667-67.584-55.125333-122.88-122.709333-122.88z m-87.552 88.064h91.477333c9.386667 0 17.066667 7.68 17.066667 17.066666s-7.68 17.066667-17.066667 17.066667h-91.477333c-9.386667 0-17.066667-7.68-17.066667-17.066667s7.68-17.066667 17.066667-17.066666zM342.528 85.162667c0-9.386667 7.68-17.066667 17.066667-17.066667s17.066667 7.68 17.066666 17.066667v91.477333c0 9.386667-7.68 17.066667-17.066666 17.066667s-17.066667-7.68-17.066667-17.066667V85.162667z m183.978667 790.357333c-96.256 0-184.490667-48.64-235.861334-130.218667-27.989333-44.373333-42.837333-95.744-42.837333-148.650666 0-153.770667 125.098667-278.869333 278.869333-278.869334s278.528 125.269333 278.528 278.869334c0 153.770667-125.098667 278.869333-278.698666 278.869333z m380.757333-634.197333H167.253333v-0.853334c-1.536 0.512-3.413333 0.853333-5.12 0.853334-9.386667 0-17.066667-7.68-17.066666-17.066667s7.68-17.066667 17.066666-17.066667c1.706667 0 3.584 0.341333 5.12 0.853334v-0.853334h740.010667c9.386667 0 17.066667 7.68 17.066667 17.066667s-7.509333 17.066667-17.066667 17.066667z" fill="#507d3b" p-id="662"></path></svg>