<?xml version="1.0" standalone="no"?><!DOCTYPE svg PUBLIC "-//W3C//DTD SVG 1.1//EN" "http://www.w3.org/Graphics/SVG/1.1/DTD/svg11.dtd"><svg t="1503051597835" class="icon" style="" viewBox="0 0 1024 1024" version="1.1" xmlns="http://www.w3.org/2000/svg" p-id="1684" xmlns:xlink="http://www.w3.org/1999/xlink" width="64" height="64"><defs><style type="text/css"></style></defs><path d="M525.5 521.2m-406.1 0a406.1 406.1 0 1 0 812.2 0 406.1 406.1 0 1 0-812.2 0Z" fill="#C4E3F9" p-id="1685"></path><path d="M813.7 807.2c-73.6 74.1-175.5 120-288.2 120-112.1 0-213.6-45.5-287.1-118.9l575.3-1.1z" fill="#F1F2F2" p-id="1686"></path><path d="M525.5 932.9c-227.2 0-412.1-184.9-412.1-412.1s184.9-412.1 412.1-412.1c227.2 0 412.1 184.9 412.1 412.1S752.7 932.9 525.5 932.9z m0-812.2c-220.6 0-400 179.5-400 400 0 220.6 179.5 400 400 400s400-179.5 400-400-179.5-400-400-400z" fill="#414042" p-id="1687"></path><path d="M525.9 70.7c-102.7 0-186.7 84-186.7 186.7v228c0 102.7 84 86.6 186.7 86.6 102.7 0 186.7 16.1 186.7-86.6v-228c0-102.7-84-186.7-186.7-186.7z" fill="#F89406" p-id="1688"></path><path d="M525.9 70.7c-102.7 0-186.7 84-186.7 186.7v228c0 102.7 84 86.6 186.7 86.6 102.7 0 186.7 16.1 186.7-86.6v-228c0-102.7-84-186.7-186.7-186.7z" fill="#F89406" p-id="1689"></path><path d="M595.2 578.9c-10.4 0-21.2-0.2-32.3-0.4-23.9-0.5-50-0.5-73.9 0-56.7 1.1-105.6 2.1-133.1-24.8-15.3-15-22.7-37.3-22.7-68.2v-228c0-106.3 86.5-192.8 192.8-192.8s192.8 86.5 192.8 192.8v228c0 31-7.4 53.3-22.7 68.2-22.2 21.5-58.2 25.2-100.9 25.2z m-69.3-13c12.7 0 25.2 0.2 37.2 0.5 54 1.1 100.6 2 124.4-21.4 12.8-12.6 19.1-32.1 19.1-59.6v-228c0-99.6-81-180.7-180.7-180.7-99.6 0-180.7 81-180.7 180.7v228c0 27.5 6.2 47 19.1 59.6 23.8 23.4 70.5 22.5 124.4 21.4 12.1-0.3 24.5-0.5 37.2-0.5z" fill="#414042" p-id="1690"></path><path d="M762.2 811.5V636.3c0-25.7-21-46.7-46.7-46.7h-379c-25.7 0-46.7 21-46.7 46.7v175.2h472.4z" fill="#19B5FE" p-id="1691"></path><path d="M360.6 589.6h-24.2c-25.7 0-46.7 21-46.7 46.7v175.2h24.2V636.3c-0.1-25.7 21-46.7 46.7-46.7z" fill="#27728E" p-id="1692"></path><path d="M768.2 817.6H283.6V636.3c0-29.1 23.7-52.8 52.8-52.8h379c29.1 0 52.8 23.7 52.8 52.8v181.3z m-472.5-12.1h460.4V636.3c0-22.4-18.3-40.7-40.7-40.7h-379c-22.4 0-40.7 18.3-40.7 40.7v169.2z" fill="#414042" p-id="1693"></path><path d="M565 590.6l54-1s0 67.7-91.3 67.8c-96.7 0-102.2-67.8-102.2-67.8l64.9 1V534H565v56.6z" fill="#FFFFFF" p-id="1694"></path><path d="M527.7 663.4c-101.1 0-108.1-72.6-108.1-73.3l-0.5-6.6 65.4 1V528h86.6v56.5l54-1v6.2c-0.1 0.6-1.2 73.6-97.4 73.7z m-94.9-67.7c4.2 16.1 22 55.6 94.8 55.6h0.1c69.1 0 82.2-39.9 84.7-55.6l-53.4 1V540h-62.5v56.7l-63.7-1z" fill="#414042" p-id="1695"></path><path d="M627 505.7L561.4 534c-22.7 9.8-48.3 9.8-71 0l-65.6-28.2c-32.8-14.1-54-46.4-54-82.1V224.4H681v199.3c0 35.6-21.2 67.9-54 82z" fill="#FFFFFF" p-id="1696"></path><path d="M525.9 547.3c-12.9 0-25.8-2.6-37.9-7.8l-65.6-28.2c-35-15.1-57.7-49.5-57.7-87.6V218.3H687v205.3c0 38.1-22.6 72.5-57.7 87.6l-65.6 28.2c-11.9 5.3-24.8 7.9-37.8 7.9z m-149-316.9v193.2c0 33.3 19.8 63.4 50.4 76.5l65.6 28.2c21 9.1 45.2 9.1 66.2 0l65.6-28.2C655.2 487 675 457 675 423.6V230.4H376.9z" fill="#414042" p-id="1697"></path><path d="M525.9 70.7c-102.7 0-186.7 84-186.7 186.7v14.3h122.7c31.1-5.6 26.5-50.4 42-47.3 16.1 3.2-6.5 48.4 45.5 47.3 0 0 106.5-0.7 163.2 0v-14.3c0-102.7-84-186.7-186.7-186.7z" fill="#F89406" p-id="1698"></path><path d="M525.9 70.7c-102.7 0-186.7 84-186.7 186.7v14.3h0.3c5.2-98.1 87.1-176.8 186.4-176.8 99.4 0 181.3 78.7 186.4 176.8h0.3v-14.3c0-102.7-84-186.7-186.7-186.7z" fill="#F9A938" p-id="1699"></path><path d="M547.7 276.2c-35.8 0-38.8-22.5-40.6-36-1-7.4-1.7-11-4-11.4-2.8-0.5-4.9 4.5-8.2 13-5 13-11.9 30.7-32.1 34.4l-0.8 0.1H352.6v-9.1h109c14.9-2.9 20.2-16.6 24.9-28.7 3.9-10.1 8-20.7 18.4-18.6 8.9 1.7 10.1 11 11.2 19.1 1.9 14.1 3.9 28.8 33.4 28.1 1 0 93.9-0.7 150 0l-0.1 9.1c-56-0.7-148.8 0-149.7 0h-2z" fill="#414042" p-id="1700"></path><path d="M517.9 355.6l-15.6 46.7c-2.8 5.9 1.5 12.8 8.1 12.8h31.2c6.6 0 10.9-6.9 8.1-12.8L534 355.6c-3.2-6.8-12.9-6.8-16.1 0l-15.6 46.7c-2.8 5.9 1.5 12.8 8.1 12.8h31.2c6.6 0 10.9-6.9 8.1-12.8L534 355.6c-3.2-6.8-12.9-6.8-16.1 0z" fill="#F9B3AF" p-id="1701"></path><path d="M541.5 421.2h-31.2c-5.2 0-9.9-2.6-12.7-7-1.5-2.4-2.3-5.2-2.3-8 0-2.1 0.4-4.1 1.3-6.1l15.8-47.1c2.5-5.3 7.7-8.5 13.5-8.5s11 3.3 13.5 8.5l0.3 0.7 15.5 46.4c0.9 2 1.3 4 1.3 6.1 0 2.8-0.8 5.5-2.3 8-2.7 4.4-7.5 7-12.7 7z m-34.1-15c0 0.7 0.3 1.2 0.5 1.6 0.3 0.5 1.1 1.4 2.5 1.4h31.2c1.4 0 2.1-0.8 2.5-1.4 0.2-0.3 0.5-0.9 0.5-1.6 0-0.4-0.1-0.8-0.3-1.3l-0.3-0.7-15.5-46.3c-0.7-1.3-2-1.4-2.5-1.4s-1.8 0.1-2.5 1.4l-15.7 47c-0.3 0.5-0.4 0.9-0.4 1.3z" fill="#414042" p-id="1702"></path><path d="M692.3 354.1H359.6c-3.9 0-7-3.1-7-7V245.4c0-3.8 3.1-7 7-7h332.7c3.8 0 7 3.2 7 7v101.7c0 3.9-3.2 7-7 7z" fill="#414042" p-id="1703"></path><path d="M674 348H377.9c-3.9 0-7-3.1-7-7v-89.5c0-3.8 3.1-7 7-7H674c3.9 0 7 3.2 7 7V341c0 3.9-3.1 7-7 7z" fill="#58595B" p-id="1704"></path><path d="M657 360.1H394.9c-26.6 0-48.3-21.7-48.3-48.3v-31.1c0-26.6 21.7-48.3 48.3-48.3H657c26.6 0 48.3 21.7 48.3 48.3v31.1c0 26.7-21.7 48.3-48.3 48.3zM394.9 244.5c-20 0-36.2 16.3-36.2 36.2v31.1c0 20 16.3 36.2 36.2 36.2H657c20 0 36.2-16.3 36.2-36.2v-31.1c0-20-16.3-36.2-36.2-36.2H394.9zM525.9 476.3c-19.6 0-38-3.9-52.1-10.9l5.4-10.8c12.4 6.2 28.9 9.6 46.7 9.6s34.3-3.4 46.7-9.6l5.4 10.8c-14 7.1-32.5 10.9-52.1 10.9z" fill="#414042" p-id="1705"></path><path d="M717.2 358.5h-9.1V257.4c0-100.5-81.7-182.2-182.2-182.2-100.5 0-182.2 81.7-182.2 182.2v101.1h-9.1V257.4c0-105.4 85.8-191.2 191.2-191.2C631.3 66.2 717 152 717 257.4v101.1z" fill="#414042" p-id="1706"></path><path d="M398.3 264.2h90.8v7.5h-90.8z" fill="#EF4136" p-id="1707"></path><path d="M513.487 271.713h-12.2v-7.5h12.2z" fill="#F1F2F2" p-id="1708"></path><path d="M829.3 797.5h-12.1V407.8c0-59.5-48.4-107.9-107.9-107.9h-6.9v-12.1h6.9c66.2 0 120 53.8 120 120v389.7z" fill="#414042" p-id="1709"></path><path d="M298.6 434H72.5c-1.1 0-1.9-0.9-1.9-1.9V284.9c0-1.1 0.9-1.9 1.9-1.9h226.1c1.1 0 1.9 0.9 1.9 1.9V432c0 1.1-0.8 2-1.9 2z" fill="#F47B54" p-id="1710"></path><path d="M70.5 358.5V419c0 8.2 6.7 14.9 14.9 14.9h200.1c8.2 0 14.9-6.7 14.9-14.9v-60.5H70.5z" fill="#F15A29" p-id="1711"></path><path d="M288.8 440H82.2c-9.8 0-17.7-8-17.7-17.7V294.7c0-9.8 8-17.7 17.7-17.7h206.6c9.8 0 17.7 8 17.7 17.7v127.6c0.1 9.7-7.9 17.7-17.7 17.7zM82.2 289c-3.1 0-5.6 2.5-5.6 5.6v127.6c0 3.1 2.5 5.6 5.6 5.6h206.6c3.1 0 5.6-2.5 5.6-5.6V294.7c0-3.1-2.5-5.6-5.6-5.6H82.2z" fill="#414042" p-id="1712"></path><path d="M217.3 358.5l-63.6 36.7v-73.4l63.6 36.7-63.6 36.7v-73.4z" fill="#FFFFFF" p-id="1713"></path><path d="M185.5 477.3h137v12.1h-137zM185.5 515.1h137v12.1h-137zM185.5 552.9H254V565h-68.5z" fill="#414042" p-id="1714"></path><path d="M792.9 189.9c-29.7 0-53.9-24.2-53.9-53.9s24.2-53.9 53.9-53.9 53.9 24.2 53.9 53.9-24.2 53.9-53.9 53.9z m0-95.7c-23.1 0-41.8 18.8-41.8 41.8s18.8 41.8 41.8 41.8c23.1 0 41.8-18.8 41.8-41.8s-18.8-41.8-41.8-41.8z" fill="#414042" p-id="1715"></path><path d="M773.7 129.9h38.4V142h-38.4z" fill="#414042" p-id="1716"></path><path d="M898.1 304.2m-81 0a81 81 0 1 0 162 0 81 81 0 1 0-162 0Z" fill="#F89406" p-id="1717"></path><path d="M898.1 391.2c-48 0-87-39-87-87s39-87 87-87 87 39 87 87-39 87-87 87z m0-162c-41.3 0-74.9 33.6-74.9 74.9s33.6 74.9 74.9 74.9c41.3 0 74.9-33.6 74.9-74.9s-33.6-74.9-74.9-74.9z" fill="#414042" p-id="1718"></path><path d="M865.6 298.1h65v12.1h-65z" fill="#414042" p-id="1719"></path><path d="M892 271.7h12.1v65H892z" fill="#414042" p-id="1720"></path><path d="M244.4 662.8l-32.1-18.5v-37.1l32.1-18.5 32.1 18.5v37.1l-32.1 18.5z m-20.1-25.5l20 11.6 20-11.6v-23.1l-20-11.6-20 11.6v23.1z" fill="#414042" p-id="1721"></path><path d="M180.8 251.7l-27.4-15.8v-31.6l27.4-15.8 27.4 15.8v31.6l-27.4 15.8z m-15.3-22.8l15.3 8.8 15.3-8.8v-17.7l-15.3-8.8-15.3 8.8v17.7z" fill="#414042" p-id="1722"></path><path d="M231.3 192.2l-35.2-20.3v-40.7l35.2-20.3 35.2 20.3v40.7l-35.2 20.3z m-23.1-27.3l23.1 13.4 23.1-13.4v-26.7l-23.1-13.4-23.1 13.4v26.7z" fill="#414042" p-id="1723"></path><path d="M831.3 196.9h100.5V209H831.3zM943.9 196.9h21V209h-21z" fill="#414042" p-id="1724"></path><path d="M244.4 805.5h566v12.1h-566z" fill="#414042" p-id="1725"></path></svg>